REM DIRINDEX 1\4,1\2\5,1\2\6,1\3\7,1\3\8
REM DIRNAME folder01,folder02,folder03,folder04,folder05,folder06,folder07,folder08
TITLE ""
FILE "041_Day21_Check2_Phrases.mp3" MP3
  TRACK 01 AUDIO
    TITLE "0:"
    INDEX 01 00:00:00
  TRACK 02 AUDIO
    TITLE "4:cjc124_1323"
    INDEX 01 00:00:31
  TRACK 03 AUDIO
    TITLE "0:"
    INDEX 01 00:01:44
  TRACK 04 AUDIO
    TITLE "5:cjc124_1324"
    INDEX 01 00:02:04
  TRACK 05 AUDIO
    TITLE "0:"
    INDEX 01 00:04:17
  TRACK 06 AUDIO
    TITLE "6:cjc124_1325"
    INDEX 01 00:04:35
  TRACK 07 AUDIO
    TITLE "0:"
    INDEX 01 00:06:35
  TRACK 08 AUDIO
    TITLE "5:cjc124_1326"
    INDEX 01 00:06:73
  TRACK 09 AUDIO
    TITLE "0:"
    INDEX 01 00:08:44
  TRACK 10 AUDIO
    TITLE "6:cjc124_1327"
    INDEX 01 00:08:62
  TRACK 11 AUDIO
    TITLE "0:"
    INDEX 01 00:10:31
  TRACK 12 AUDIO
    TITLE "5:cjc124_1328"
    INDEX 01 00:10:70
  TRACK 13 AUDIO
    TITLE "0:"
    INDEX 01 00:12:34
  TRACK 14 AUDIO
    TITLE "6:cjc124_1329"
    INDEX 01 00:12:54
  TRACK 15 AUDIO
    TITLE "0:"
    INDEX 01 00:13:63
  TRACK 16 AUDIO
    TITLE "5:cjc124_1330"
    INDEX 01 00:14:29
  TRACK 17 AUDIO
    TITLE "0:"
    INDEX 01 00:16:20
  TRACK 18 AUDIO
    TITLE "6:cjc124_1331"
    INDEX 01 00:16:42
  TRACK 19 AUDIO
    TITLE "0:"
    INDEX 01 00:17:59
  TRACK 20 AUDIO
    TITLE "5:cjc124_1332"
    INDEX 01 00:18:25
  TRACK 21 AUDIO
    TITLE "0:"
    INDEX 01 00:20:28
  TRACK 22 AUDIO
    TITLE "6:cjc124_1333"
    INDEX 01 00:20:47
  TRACK 23 AUDIO
    TITLE "0:"
    INDEX 01 00:22:11
  TRACK 24 AUDIO
    TITLE "5:cjc124_1334"
    INDEX 01 00:22:50
  TRACK 25 AUDIO
    TITLE "0:"
    INDEX 01 00:24:41
  TRACK 26 AUDIO
    TITLE "6:cjc124_1335"
    INDEX 01 00:24:59
  TRACK 27 AUDIO
    TITLE "0:"
    INDEX 01 00:26:34
  TRACK 28 AUDIO
    TITLE "5:cjc124_1336"
    INDEX 01 00:26:73
  TRACK 29 AUDIO
    TITLE "0:"
    INDEX 01 00:28:33
  TRACK 30 AUDIO
    TITLE "6:cjc124_1337"
    INDEX 01 00:28:53
  TRACK 31 AUDIO
    TITLE "0:"
    INDEX 01 00:30:01
  TRACK 32 AUDIO
    TITLE "5:cjc124_1338"
    INDEX 01 00:30:42
  TRACK 33 AUDIO
    TITLE "0:"
    INDEX 01 00:32:29
  TRACK 34 AUDIO
    TITLE "6:cjc124_1339"
    INDEX 01 00:32:47
  TRACK 35 AUDIO
    TITLE "0:"
    INDEX 01 00:33:64
  TRACK 36 AUDIO
    TITLE "5:cjc124_1340"
    INDEX 01 00:34:30
  TRACK 37 AUDIO
    TITLE "0:"
    INDEX 01 00:36:38
  TRACK 38 AUDIO
    TITLE "6:cjc124_1341"
    INDEX 01 00:36:56
  TRACK 39 AUDIO
    TITLE "0:"
    INDEX 01 00:38:39
  TRACK 40 AUDIO
    TITLE "5:cjc124_1342"
    INDEX 01 00:39:02
  TRACK 41 AUDIO
    TITLE "0:"
    INDEX 01 00:40:68
  TRACK 42 AUDIO
    TITLE "6:cjc124_1343"
    INDEX 01 00:41:12
  TRACK 43 AUDIO
    TITLE "0:"
    INDEX 01 00:42:53
  TRACK 44 AUDIO
    TITLE "5:cjc124_1344"
    INDEX 01 00:43:17
  TRACK 45 AUDIO
    TITLE "0:"
    INDEX 01 00:44:67
  TRACK 46 AUDIO
    TITLE "6:cjc124_1345"
    INDEX 01 00:45:10
  TRACK 47 AUDIO
    TITLE "0:"
    INDEX 01 00:46:54
  TRACK 48 AUDIO
    TITLE "5:cjc124_1346"
    INDEX 01 00:47:17
  TRACK 49 AUDIO
    TITLE "0:"
    INDEX 01 00:48:73
  TRACK 50 AUDIO
    TITLE "6:cjc124_1347"
    INDEX 01 00:49:21
  TRACK 51 AUDIO
    TITLE "0:"
    INDEX 01 00:50:56
  TRACK 52 AUDIO
    TITLE "5:cjc124_1348"
    INDEX 01 00:51:18
  TRACK 53 AUDIO
    TITLE "0:"
    INDEX 01 00:53:11
  TRACK 54 AUDIO
    TITLE "6:cjc124_1349"
    INDEX 01 00:53:29
  TRACK 55 AUDIO
    TITLE "0:"
    INDEX 01 00:55:14
  TRACK 56 AUDIO
    TITLE "5:cjc124_1350"
    INDEX 01 00:55:51
  TRACK 57 AUDIO
    TITLE "0:"
    INDEX 01 00:57:15
  TRACK 58 AUDIO
    TITLE "6:cjc124_1351"
    INDEX 01 00:57:46
  TRACK 59 AUDIO
    TITLE "0:"
    INDEX 01 00:59:32
  TRACK 60 AUDIO
    TITLE "5:cjc124_1352"
    INDEX 01 00:59:71
  TRACK 61 AUDIO
    TITLE "0:"
    INDEX 01 01:01:40
  TRACK 62 AUDIO
    TITLE "6:cjc124_1353"
    INDEX 01 01:01:60
  TRACK 63 AUDIO
    TITLE "0:"
    INDEX 01 01:03:16
  TRACK 64 AUDIO
    TITLE "5:cjc124_1354"
    INDEX 01 01:03:55
  TRACK 65 AUDIO
    TITLE "0:"
    INDEX 01 01:05:38
  TRACK 66 AUDIO
    TITLE "6:cjc124_1355"
    INDEX 01 01:05:56
  TRACK 67 AUDIO
    TITLE "0:"
    INDEX 01 01:07:27
